<svg width="55" height="20" viewBox="0 0 55 20" fill="none" xmlns="http://www.w3.org/2000/svg">
<path d="M8.5532 14.1994H12.0952C12.2807 14.1994 12.3735 14.3175 12.3735 14.5536V19.0064C12.3735 19.4787 12.1373 19.7148 11.6651 19.7148H5.54251V17.3113H7.8954C8.16527 17.3113 8.3002 17.286 8.3002 17.2354C8.31707 17.168 8.3255 17.0921 8.3255 17.0077V14.4777C8.3255 14.3428 8.34237 14.2669 8.3761 14.25C8.40983 14.2163 8.46886 14.1994 8.5532 14.1994ZM4.65702 19.7148H2.00053C1.42706 19.7148 1.04757 19.622 0.862034 19.4365C0.693368 19.251 0.609035 18.8631 0.609035 18.2727V2.86509C0.609035 2.27476 0.693368 1.88683 0.862034 1.7013C1.04757 1.51577 1.42706 1.423 2.00053 1.423H4.65702V19.7148ZM18.1569 19.7148H18.1063C16.4365 19.7148 15.4076 19.4281 15.0197 18.8546C14.8342 18.5848 14.6824 18.3233 14.5643 18.0703C14.4631 17.8173 14.3956 17.421 14.3619 16.8812C14.2776 15.903 14.2354 14.8151 14.2354 13.6175C14.2354 12.42 14.2438 11.5598 14.2607 11.037C14.2776 10.4972 14.3282 9.95749 14.4125 9.41776C14.5137 8.86117 14.6402 8.4648 14.792 8.22867C14.9438 7.97567 15.1715 7.74797 15.4751 7.54557C15.7787 7.34317 16.1329 7.21667 16.5377 7.16607C16.9425 7.09861 17.4653 7.06487 18.1063 7.06487H18.1569V19.7148ZM24.8866 15.7174V17.0077C24.8866 18.8125 23.9674 19.7148 22.129 19.7148H18.9412V17.8173H20.3074C20.6616 17.8173 20.8808 17.7667 20.9652 17.6655C21.0495 17.5475 21.0917 17.3451 21.0917 17.0583V16.2487C21.0917 15.9957 21.117 15.8524 21.1676 15.8186C21.235 15.7849 21.2772 15.768 21.2941 15.768C21.3109 15.7512 21.3531 15.7427 21.4206 15.7427C21.5049 15.7259 21.5639 15.7174 21.5977 15.7174C22.694 15.7174 23.7903 15.7174 24.8866 15.7174ZM18.9412 7.06487H21.876C23.0397 7.06487 23.8325 7.29257 24.2541 7.74797C24.6758 8.20337 24.8866 8.87803 24.8866 9.77196V11.9984C24.8866 13.5163 24.0602 14.2753 22.4073 14.2753H18.6882V12.3778H20.0544C20.4592 12.3778 20.729 12.3272 20.864 12.226C21.0158 12.1248 21.0917 11.9309 21.0917 11.6442V9.72136C21.0917 9.43463 21.0495 9.24066 20.9652 9.13946C20.8808 9.0214 20.6616 8.96237 20.3074 8.96237H18.9412V7.06487ZM33.9827 19.5124C33.9827 19.6136 33.9321 19.6811 33.8309 19.7148H31.9081C30.6769 19.7148 29.783 19.4702 29.2264 18.9811C28.6698 18.492 28.3915 17.6318 28.3915 16.4005V9.01296H27.1012C26.6795 9.01296 26.4687 8.75997 26.4687 8.25397V7.06487H28.3915V1.423H29.9348C30.6769 1.423 31.2335 1.60853 31.6045 1.9796C31.9925 2.35066 32.1864 2.82293 32.1864 3.39639V16.8559C32.1864 17.48 32.5406 17.792 33.249 17.792H33.7803C33.9153 17.792 33.9827 17.8511 33.9827 17.9691V19.5124ZM34.767 7.06487V8.25397C34.767 8.75997 34.5562 9.01296 34.1345 9.01296H32.8189V7.06487H34.767ZM41.3851 0.411007V4.35779C41.3851 5.18425 41.1321 5.84205 40.6261 6.33118C40.1201 6.82031 39.3696 7.06487 38.3744 7.06487H35.9203V4.66139H36.7805C37.1347 4.66139 37.354 4.61079 37.4383 4.50959C37.5227 4.39152 37.5648 4.18912 37.5648 3.90239V0.411007H41.3851ZM47.3539 7.06487V11.6948C47.3539 11.9815 47.3961 12.1839 47.4804 12.3019C47.5647 12.4031 47.784 12.4537 48.1382 12.4537H49.555V14.3512H46.3166C44.4782 14.3512 43.5589 13.4489 43.5589 11.6442V9.87316C43.5589 8.75997 43.8372 8.01784 44.3938 7.64677C44.9673 7.25884 45.954 7.06487 47.3539 7.06487ZM47.4045 15.7174V17.0583C47.4045 17.3451 47.4467 17.5475 47.531 17.6655C47.6153 17.7667 47.8346 17.8173 48.1888 17.8173H49.555V19.7148H46.3672C44.5288 19.7148 43.6095 18.8125 43.6095 17.0077V16.2487C43.6095 15.9957 43.6348 15.8524 43.6854 15.8186C43.7529 15.7849 43.7951 15.768 43.8119 15.768C43.8288 15.7512 43.871 15.7427 43.9384 15.7427C44.0228 15.7259 44.0734 15.7174 44.0902 15.7174C45.2034 15.7174 46.3082 15.7174 47.4045 15.7174ZM50.314 12.4537H51.3513C53.1898 12.4537 54.109 13.3561 54.109 15.1608V16.9065C54.109 18.0197 53.8223 18.7703 53.2488 19.1582C52.6922 19.5293 51.7139 19.7148 50.314 19.7148V12.4537ZM48.1129 7.06487H51.3007C53.1392 7.06487 54.0584 7.96724 54.0584 9.77196V11.0876C52.9283 11.0876 52.0681 11.0876 51.4778 11.0876C50.8875 11.0876 50.5839 11.0876 50.567 11.0876C50.5501 11.0707 50.5164 11.0623 50.4658 11.0623C50.4321 11.0454 50.4068 11.0285 50.3899 11.0117C50.373 10.9948 50.3562 10.9779 50.3393 10.9611C50.3224 10.9273 50.314 10.8936 50.314 10.8599C50.2803 10.7249 50.2634 10.6237 50.2634 10.5563V9.72136C50.2634 9.43463 50.2212 9.24066 50.1369 9.13946C50.0526 9.0214 49.8333 8.96237 49.4791 8.96237H48.1129V7.06487Z" fill="black"/>
</svg>
