<svg width="339" height="27" viewBox="0 0 339 27" fill="none" xmlns="http://www.w3.org/2000/svg">
<path d="M6.29 0.309999V18.28C6.29 18.58 6.36 18.8 6.5 18.94C6.66 19.08 7 19.15 7.52 19.15H9.74V22H5.93C5.13 22 4.46 21.94 3.92 21.82C3.4 21.7 2.94 21.46 2.54 21.1C2.16 20.72 1.86 20.3 1.64 19.84C1.44 19.38 1.28 18.69 1.16 17.77C0.98 16.39 0.89 14.54 0.89 12.22C0.89 9.88 0.9 8.23 0.92 7.27C0.96 6.31 1.04 5.38 1.16 4.48C1.28 3.56 1.44 2.88 1.64 2.44C1.86 1.98 2.16 1.57 2.54 1.21C2.94 0.83 3.4 0.59 3.92 0.49C4.46 0.369999 5.13 0.309999 5.93 0.309999H6.29ZM7.49 10.18H12.77C14.73 10.18 15.71 11.08 15.71 12.88V19.12C15.71 20.36 15.61 21.15 15.41 21.49C15.23 21.83 14.69 22 13.79 22H10.94V13.9C10.94 13.58 10.89 13.36 10.79 13.24C10.71 13.1 10.49 13.03 10.13 13.03H7.49V10.18ZM7.49 0.309999H11.3C12.76 0.309999 13.86 0.559999 14.6 1.06C15.36 1.56 15.74 2.43 15.74 3.67V6.37C15.74 6.79 15.6 7 15.32 7H11.54C11.26 7 11.09 6.96 11.03 6.88C10.97 6.8 10.94 6.63 10.94 6.37V4.03C10.94 3.71 10.89 3.49 10.79 3.37C10.71 3.23 10.49 3.16 10.13 3.16H7.49V0.309999ZM23.7542 22H23.6942C21.7142 22 20.4942 21.66 20.0342 20.98C19.8142 20.66 19.6342 20.35 19.4942 20.05C19.3742 19.75 19.2942 19.28 19.2542 18.64C19.1542 17.48 19.1042 16.19 19.1042 14.77C19.1042 13.35 19.1142 12.33 19.1342 11.71C19.1542 11.07 19.2142 10.43 19.3142 9.79C19.4342 9.13 19.5842 8.66 19.7642 8.38C19.9442 8.08 20.2142 7.81 20.5742 7.57C20.9342 7.33 21.3542 7.18 21.8342 7.12C22.3142 7.04 22.9342 7 23.6942 7H23.7542V22ZM31.7342 17.26V18.79C31.7342 20.93 30.6442 22 28.4642 22H24.6842V19.75H26.3042C26.7242 19.75 26.9842 19.69 27.0842 19.57C27.1842 19.43 27.2342 19.19 27.2342 18.85V17.89C27.2342 17.59 27.2642 17.42 27.3242 17.38C27.4042 17.34 27.4542 17.32 27.4742 17.32C27.4942 17.3 27.5442 17.29 27.6242 17.29C27.7242 17.27 27.7942 17.26 27.8342 17.26C29.1342 17.26 30.4342 17.26 31.7342 17.26ZM24.6842 7H28.1642C29.5442 7 30.4842 7.27 30.9842 7.81C31.4842 8.35 31.7342 9.15 31.7342 10.21V12.85C31.7342 14.65 30.7542 15.55 28.7942 15.55H24.3842V13.3H26.0042C26.4842 13.3 26.8042 13.24 26.9642 13.12C27.1442 13 27.2342 12.77 27.2342 12.43V10.15C27.2342 9.81 27.1842 9.58 27.0842 9.46C26.9842 9.32 26.7242 9.25 26.3042 9.25H24.6842V7ZM42.5202 21.76C42.5202 21.88 42.4602 21.96 42.3402 22H40.0602C38.6002 22 37.5402 21.71 36.8802 21.13C36.2202 20.55 35.8902 19.53 35.8902 18.07V9.31H34.3602C33.8602 9.31 33.6102 9.01 33.6102 8.41V7H35.8902V0.309999H37.7202C38.6002 0.309999 39.2602 0.529999 39.7002 0.969999C40.1602 1.41 40.3902 1.97 40.3902 2.65V18.61C40.3902 19.35 40.8102 19.72 41.6502 19.72H42.2802C42.4402 19.72 42.5202 19.79 42.5202 19.93V21.76ZM43.4502 7V8.41C43.4502 9.01 43.2002 9.31 42.7002 9.31H41.1402V7H43.4502ZM57.1494 22H56.7894C55.9894 22 55.3194 21.94 54.7794 21.82C54.2594 21.7 53.7994 21.46 53.3994 21.1C53.0194 20.72 52.7194 20.3 52.4994 19.84C52.2994 19.38 52.1394 18.69 52.0194 17.77C51.8394 16.39 51.7494 14.54 51.7494 12.22C51.7494 9.88 51.7594 8.23 51.7794 7.27C51.8194 6.31 51.8994 5.38 52.0194 4.48C52.1394 3.56 52.2994 2.88 52.4994 2.44C52.7194 1.98 53.0194 1.57 53.3994 1.21C53.7994 0.83 54.2594 0.59 54.7794 0.49C55.3194 0.369999 55.9894 0.309999 56.7894 0.309999H57.1494V22ZM58.3494 0.309999H62.1594C63.6194 0.309999 64.7194 0.559999 65.4594 1.06C66.2194 1.56 66.5994 2.43 66.5994 3.67V6.37C66.5994 6.79 66.4594 7 66.1794 7H62.3994C62.1194 7 61.9494 6.96 61.8894 6.88C61.8294 6.8 61.7994 6.63 61.7994 6.37V4.03C61.7994 3.71 61.7494 3.49 61.6494 3.37C61.5694 3.23 61.3494 3.16 60.9894 3.16H58.3494V0.309999ZM62.3994 15.31H66.1794C66.4594 15.31 66.5994 15.52 66.5994 15.94V18.64C66.5994 19.88 66.2194 20.75 65.4594 21.25C64.7194 21.75 63.6194 22 62.1594 22H58.3494V19.15H60.9894C61.3494 19.15 61.5694 19.09 61.6494 18.97C61.7494 18.83 61.7994 18.6 61.7994 18.28V15.94C61.7994 15.68 61.8294 15.51 61.8894 15.43C61.9494 15.35 62.1194 15.31 62.3994 15.31ZM75.2206 7H78.1306C78.8906 7 79.5106 7.04 79.9906 7.12C80.4706 7.18 80.8906 7.33 81.2506 7.57C81.6106 7.81 81.8806 8.08 82.0606 8.38C82.2406 8.66 82.3806 9.12 82.4806 9.76C82.6406 10.66 82.7206 11.92 82.7206 13.54C82.7206 15.16 82.7106 16.26 82.6906 16.84C82.6706 17.4 82.6306 18 82.5706 18.64C82.5306 19.28 82.4406 19.75 82.3006 20.05C82.1806 20.35 82.0106 20.66 81.7906 20.98C81.5906 21.28 81.3206 21.49 80.9806 21.61C80.2406 21.87 79.2906 22 78.1306 22H78.0706V10.69C78.0706 10.65 78.0706 10.53 78.0706 10.33C78.0706 10.13 78.0606 9.96 78.0406 9.82C77.9406 9.44 77.5406 9.25 76.8406 9.25H75.2206V7ZM74.3206 7V18.31C74.3206 18.35 74.3206 18.47 74.3206 18.67C74.3206 18.87 74.3406 19.04 74.3806 19.18C74.4606 19.56 74.8506 19.75 75.5506 19.75H77.1706V22H74.2606C73.5006 22 72.8806 21.97 72.4006 21.91C71.9206 21.83 71.5006 21.67 71.1406 21.43C70.7806 21.19 70.5106 20.93 70.3306 20.65C70.1506 20.35 70.0006 19.88 69.8806 19.24C69.7406 18.34 69.6706 17.08 69.6706 15.46C69.6706 13.84 69.6806 12.75 69.7006 12.19C69.7206 11.61 69.7506 11 69.7906 10.36C69.8506 9.72 69.9406 9.25 70.0606 8.95C70.2006 8.65 70.3706 8.35 70.5706 8.05C70.7906 7.73 71.0706 7.51 71.4106 7.39C72.1506 7.13 73.1006 7 74.2606 7H74.3206ZM91.2439 7H95.4439C97.6239 7 98.7139 8.07 98.7139 10.21V22H95.2939C94.9739 22 94.7139 21.89 94.5139 21.67C94.3139 21.45 94.2139 21.16 94.2139 20.8V10.15C94.2139 9.83 94.1339 9.6 93.9739 9.46C93.8339 9.32 93.5039 9.25 92.9839 9.25H91.2439V7ZM85.9939 7H87.8239C88.7039 7 89.3639 7.22 89.8039 7.66C90.2639 8.08 90.4939 8.63 90.4939 9.31V22H87.0739C86.7539 22 86.4939 21.89 86.2939 21.67C86.0939 21.45 85.9939 21.16 85.9939 20.8V7ZM107.386 7H111.586C113.766 7 114.856 8.07 114.856 10.21V22H111.436C111.116 22 110.856 21.89 110.656 21.67C110.456 21.45 110.356 21.16 110.356 20.8V10.15C110.356 9.83 110.276 9.6 110.116 9.46C109.976 9.32 109.646 9.25 109.126 9.25H107.386V7ZM102.136 7H103.966C104.846 7 105.506 7.22 105.946 7.66C106.406 8.08 106.636 8.63 106.636 9.31V22H103.216C102.896 22 102.636 21.89 102.436 21.67C102.236 21.45 102.136 21.16 102.136 20.8V7ZM122.719 22H122.659C120.679 22 119.459 21.66 118.999 20.98C118.779 20.66 118.599 20.35 118.459 20.05C118.339 19.75 118.259 19.28 118.219 18.64C118.119 17.48 118.069 16.19 118.069 14.77C118.069 13.35 118.079 12.33 118.099 11.71C118.119 11.07 118.179 10.43 118.279 9.79C118.399 9.13 118.549 8.66 118.729 8.38C118.909 8.08 119.179 7.81 119.539 7.57C119.899 7.33 120.319 7.18 120.799 7.12C121.279 7.04 121.899 7 122.659 7H122.719V22ZM130.699 17.26V18.79C130.699 20.93 129.609 22 127.429 22H123.649V19.75H125.269C125.689 19.75 125.949 19.69 126.049 19.57C126.149 19.43 126.199 19.19 126.199 18.85V17.89C126.199 17.59 126.229 17.42 126.289 17.38C126.369 17.34 126.419 17.32 126.439 17.32C126.459 17.3 126.509 17.29 126.589 17.29C126.689 17.27 126.759 17.26 126.799 17.26C128.099 17.26 129.399 17.26 130.699 17.26ZM123.649 7H127.129C128.509 7 129.449 7.27 129.949 7.81C130.449 8.35 130.699 9.15 130.699 10.21V12.85C130.699 14.65 129.719 15.55 127.759 15.55H123.349V13.3H124.969C125.449 13.3 125.769 13.24 125.929 13.12C126.109 13 126.199 12.77 126.199 12.43V10.15C126.199 9.81 126.149 9.58 126.049 9.46C125.949 9.32 125.689 9.25 125.269 9.25H123.649V7ZM138.305 22H138.245C136.265 22 135.045 21.66 134.585 20.98C134.365 20.66 134.185 20.35 134.045 20.05C133.925 19.75 133.845 19.28 133.805 18.64C133.705 17.48 133.655 16.19 133.655 14.77C133.655 13.35 133.665 12.33 133.685 11.71C133.705 11.07 133.765 10.43 133.865 9.79C133.985 9.13 134.135 8.66 134.315 8.38C134.495 8.08 134.765 7.81 135.125 7.57C135.485 7.33 135.905 7.18 136.385 7.12C136.865 7.04 137.485 7 138.245 7H138.305V22ZM141.785 17.26C143.125 17.26 144.145 17.26 144.845 17.26C145.545 17.26 145.905 17.27 145.925 17.29C145.945 17.29 145.975 17.3 146.015 17.32C146.075 17.32 146.115 17.33 146.135 17.35C146.155 17.37 146.175 17.4 146.195 17.44C146.215 17.46 146.225 17.5 146.225 17.56C146.265 17.7 146.285 17.81 146.285 17.89V18.79C146.285 20.93 145.195 22 143.015 22H139.235V19.75H140.855C141.275 19.75 141.535 19.69 141.635 19.57C141.735 19.43 141.785 19.19 141.785 18.85V17.26ZM139.235 7H143.015C145.195 7 146.285 8.07 146.285 10.21V12.25C144.945 12.25 143.925 12.25 143.225 12.25C142.525 12.25 142.165 12.25 142.145 12.25C142.125 12.23 142.085 12.22 142.025 12.22C141.985 12.2 141.955 12.18 141.935 12.16C141.915 12.14 141.895 12.12 141.875 12.1C141.855 12.06 141.845 12.02 141.845 11.98C141.805 11.82 141.785 11.7 141.785 11.62V10.15C141.785 9.81 141.735 9.58 141.635 9.46C141.535 9.32 141.275 9.25 140.855 9.25H139.235V7ZM156.924 21.76C156.924 21.88 156.864 21.96 156.744 22H154.464C153.004 22 151.944 21.71 151.284 21.13C150.624 20.55 150.294 19.53 150.294 18.07V9.31H148.764C148.264 9.31 148.014 9.01 148.014 8.41V7H150.294V0.309999H152.124C153.004 0.309999 153.664 0.529999 154.104 0.969999C154.564 1.41 154.794 1.97 154.794 2.65V18.61C154.794 19.35 155.214 19.72 156.054 19.72H156.684C156.844 19.72 156.924 19.79 156.924 19.93V21.76ZM157.854 7V8.41C157.854 9.01 157.604 9.31 157.104 9.31H155.544V7H157.854ZM164.262 22H164.202C162.222 22 161.002 21.66 160.542 20.98C160.322 20.66 160.142 20.35 160.002 20.05C159.882 19.75 159.802 19.28 159.762 18.64C159.662 17.48 159.612 16.19 159.612 14.77C159.612 13.35 159.622 12.33 159.642 11.71C159.662 11.07 159.722 10.43 159.822 9.79C159.942 9.13 160.092 8.66 160.272 8.38C160.452 8.08 160.722 7.81 161.082 7.57C161.442 7.33 161.862 7.18 162.342 7.12C162.822 7.04 163.442 7 164.202 7H164.262V22ZM172.242 17.26V18.79C172.242 20.93 171.152 22 168.972 22H165.192V19.75H166.812C167.232 19.75 167.492 19.69 167.592 19.57C167.692 19.43 167.742 19.19 167.742 18.85V17.89C167.742 17.59 167.772 17.42 167.832 17.38C167.912 17.34 167.962 17.32 167.982 17.32C168.002 17.3 168.052 17.29 168.132 17.29C168.232 17.27 168.302 17.26 168.342 17.26C169.642 17.26 170.942 17.26 172.242 17.26ZM165.192 7H168.672C170.052 7 170.992 7.27 171.492 7.81C171.992 8.35 172.242 9.15 172.242 10.21V12.85C172.242 14.65 171.262 15.55 169.302 15.55H164.892V13.3H166.512C166.992 13.3 167.312 13.24 167.472 13.12C167.652 13 167.742 12.77 167.742 12.43V10.15C167.742 9.81 167.692 9.58 167.592 9.46C167.492 9.32 167.232 9.25 166.812 9.25H165.192V7ZM182.698 9.25H181.078C180.558 9.25 180.218 9.32 180.058 9.46C179.918 9.6 179.848 9.83 179.848 10.15V18.88C179.848 19.18 179.918 19.4 180.058 19.54C180.218 19.68 180.558 19.75 181.078 19.75H182.698V22H179.788C177.808 22 176.588 21.66 176.128 20.98C175.908 20.66 175.728 20.35 175.588 20.05C175.468 19.75 175.388 19.28 175.348 18.64C175.248 17.48 175.198 16.19 175.198 14.77C175.198 13.35 175.208 12.33 175.228 11.71C175.248 11.07 175.308 10.43 175.408 9.79C175.528 9.13 175.678 8.66 175.858 8.38C176.038 8.08 176.308 7.81 176.668 7.57C177.028 7.33 177.448 7.18 177.928 7.12C178.408 7.04 179.028 7 179.788 7H182.698V9.25ZM183.598 0.309999H185.428C186.308 0.309999 186.968 0.529999 187.408 0.969999C187.868 1.39 188.098 1.94 188.098 2.62V19.69C188.098 20.37 187.868 20.93 187.408 21.37C186.968 21.79 186.308 22 185.428 22H183.598V0.309999ZM196.771 26.5C196.771 26.74 196.631 26.86 196.351 26.86C195.591 26.86 194.831 26.86 194.071 26.86L193.411 22.06H191.791C191.631 22.06 191.531 22.04 191.491 22C191.451 21.96 191.421 21.86 191.401 21.7V17.83C191.421 17.67 191.451 17.57 191.491 17.53C191.531 17.49 191.631 17.47 191.791 17.47C193.311 17.47 194.831 17.47 196.351 17.47C196.631 17.47 196.771 17.59 196.771 17.83V26.5ZM211.808 0.309999V18.28C211.808 18.58 211.878 18.8 212.018 18.94C212.178 19.08 212.518 19.15 213.038 19.15H215.258V22H211.448C210.648 22 209.978 21.94 209.438 21.82C208.918 21.7 208.458 21.46 208.058 21.1C207.678 20.72 207.378 20.3 207.158 19.84C206.958 19.38 206.798 18.69 206.678 17.77C206.498 16.39 206.408 14.54 206.408 12.22C206.408 9.88 206.418 8.23 206.438 7.27C206.478 6.31 206.558 5.38 206.678 4.48C206.798 3.56 206.958 2.88 207.158 2.44C207.378 1.98 207.678 1.57 208.058 1.21C208.458 0.83 208.918 0.59 209.438 0.49C209.978 0.369999 210.648 0.309999 211.448 0.309999H211.808ZM213.008 10.18H218.288C220.248 10.18 221.228 11.08 221.228 12.88V19.12C221.228 20.36 221.128 21.15 220.928 21.49C220.748 21.83 220.208 22 219.308 22H216.458V13.9C216.458 13.58 216.408 13.36 216.308 13.24C216.228 13.1 216.008 13.03 215.648 13.03H213.008V10.18ZM213.008 0.309999H216.818C218.278 0.309999 219.378 0.559999 220.118 1.06C220.878 1.56 221.258 2.43 221.258 3.67V6.37C221.258 6.79 221.118 7 220.838 7H217.058C216.778 7 216.608 6.96 216.548 6.88C216.488 6.8 216.458 6.63 216.458 6.37V4.03C216.458 3.71 216.408 3.49 216.308 3.37C216.228 3.23 216.008 3.16 215.648 3.16H213.008V0.309999ZM229.272 22H229.212C227.232 22 226.012 21.66 225.552 20.98C225.332 20.66 225.152 20.35 225.012 20.05C224.892 19.75 224.812 19.28 224.772 18.64C224.672 17.48 224.622 16.19 224.622 14.77C224.622 13.35 224.632 12.33 224.652 11.71C224.672 11.07 224.732 10.43 224.832 9.79C224.952 9.13 225.102 8.66 225.282 8.38C225.462 8.08 225.732 7.81 226.092 7.57C226.452 7.33 226.872 7.18 227.352 7.12C227.832 7.04 228.452 7 229.212 7H229.272V22ZM237.252 17.26V18.79C237.252 20.93 236.162 22 233.982 22H230.202V19.75H231.822C232.242 19.75 232.502 19.69 232.602 19.57C232.702 19.43 232.752 19.19 232.752 18.85V17.89C232.752 17.59 232.782 17.42 232.842 17.38C232.922 17.34 232.972 17.32 232.992 17.32C233.012 17.3 233.062 17.29 233.142 17.29C233.242 17.27 233.312 17.26 233.352 17.26C234.652 17.26 235.952 17.26 237.252 17.26ZM230.202 7H233.682C235.062 7 236.002 7.27 236.502 7.81C237.002 8.35 237.252 9.15 237.252 10.21V12.85C237.252 14.65 236.272 15.55 234.312 15.55H229.902V13.3H231.522C232.002 13.3 232.322 13.24 232.482 13.12C232.662 13 232.752 12.77 232.752 12.43V10.15C232.752 9.81 232.702 9.58 232.602 9.46C232.502 9.32 232.242 9.25 231.822 9.25H230.202V7ZM248.038 21.76C248.038 21.88 247.978 21.96 247.858 22H245.578C244.118 22 243.058 21.71 242.398 21.13C241.738 20.55 241.408 19.53 241.408 18.07V9.31H239.878C239.378 9.31 239.128 9.01 239.128 8.41V7H241.408V0.309999H243.238C244.118 0.309999 244.778 0.529999 245.218 0.969999C245.678 1.41 245.908 1.97 245.908 2.65V18.61C245.908 19.35 246.328 19.72 247.168 19.72H247.798C247.958 19.72 248.038 19.79 248.038 19.93V21.76ZM248.968 7V8.41C248.968 9.01 248.718 9.31 248.218 9.31H246.658V7H248.968ZM262.457 0.339998V8.95C262.457 9.27 262.527 9.5 262.667 9.64C262.827 9.78 263.167 9.85 263.687 9.85H265.907V12.7H262.097C260.957 12.7 260.037 12.58 259.337 12.34C258.657 12.1 258.147 11.68 257.807 11.08C257.487 10.46 257.277 9.8 257.177 9.1C257.097 8.4 257.057 7.46 257.057 6.28C257.057 5.08 257.097 4.17 257.177 3.55C257.277 2.93 257.487 2.35 257.807 1.81C258.147 1.27 258.657 0.889999 259.337 0.669999C260.037 0.449998 260.957 0.339998 262.097 0.339998H262.457ZM267.107 9.85H267.467C268.327 9.85 268.987 9.87 269.447 9.91C269.927 9.93 270.387 10.02 270.827 10.18C271.267 10.32 271.567 10.49 271.727 10.69C271.907 10.89 272.067 11.24 272.207 11.74C272.367 12.22 272.457 12.74 272.477 13.3C272.497 13.86 272.507 14.66 272.507 15.7C272.507 16.74 272.497 17.57 272.477 18.19C272.457 18.79 272.367 19.37 272.207 19.93C272.067 20.47 271.907 20.85 271.727 21.07C271.567 21.29 271.267 21.49 270.827 21.67C270.387 21.83 269.927 21.93 269.447 21.97C268.987 21.99 268.327 22 267.467 22H267.107V9.85ZM257.477 15.31H261.257C261.537 15.31 261.707 15.35 261.767 15.43C261.827 15.51 261.857 15.68 261.857 15.94V18.28C261.857 18.6 261.897 18.83 261.977 18.97C262.077 19.09 262.307 19.15 262.667 19.15H265.907V22H261.497C260.037 22 258.927 21.75 258.167 21.25C257.427 20.75 257.057 19.88 257.057 18.64V15.94C257.057 15.52 257.197 15.31 257.477 15.31ZM263.657 0.309999H267.467C268.927 0.309999 270.027 0.559999 270.767 1.06C271.527 1.56 271.907 2.43 271.907 3.67V6.37C271.907 6.79 271.767 7 271.487 7H267.707C267.427 7 267.257 6.96 267.197 6.88C267.137 6.8 267.107 6.63 267.107 6.37V4.03C267.107 3.71 267.057 3.49 266.957 3.37C266.877 3.23 266.657 3.16 266.297 3.16H263.657V0.309999ZM281.178 7H284.088C284.848 7 285.468 7.04 285.948 7.12C286.428 7.18 286.848 7.33 287.208 7.57C287.568 7.81 287.838 8.08 288.018 8.38C288.198 8.66 288.338 9.12 288.438 9.76C288.598 10.66 288.678 11.92 288.678 13.54C288.678 15.16 288.668 16.26 288.648 16.84C288.628 17.4 288.588 18 288.528 18.64C288.488 19.28 288.398 19.75 288.258 20.05C288.138 20.35 287.968 20.66 287.748 20.98C287.548 21.28 287.278 21.49 286.938 21.61C286.198 21.87 285.248 22 284.088 22H284.028V10.69C284.028 10.65 284.028 10.53 284.028 10.33C284.028 10.13 284.018 9.96 283.998 9.82C283.898 9.44 283.498 9.25 282.798 9.25H281.178V7ZM280.278 7V18.31C280.278 18.35 280.278 18.47 280.278 18.67C280.278 18.87 280.298 19.04 280.338 19.18C280.418 19.56 280.808 19.75 281.508 19.75H283.128V22H280.218C279.458 22 278.838 21.97 278.358 21.91C277.878 21.83 277.458 21.67 277.098 21.43C276.738 21.19 276.468 20.93 276.288 20.65C276.108 20.35 275.958 19.88 275.838 19.24C275.698 18.34 275.628 17.08 275.628 15.46C275.628 13.84 275.638 12.75 275.658 12.19C275.678 11.61 275.708 11 275.748 10.36C275.808 9.72 275.898 9.25 276.018 8.95C276.158 8.65 276.328 8.35 276.528 8.05C276.748 7.73 277.028 7.51 277.368 7.39C278.108 7.13 279.058 7 280.218 7H280.278ZM296.391 22H296.331C294.351 22 293.131 21.66 292.671 20.98C292.451 20.66 292.271 20.35 292.131 20.05C292.011 19.75 291.931 19.28 291.891 18.64C291.791 17.48 291.741 16.19 291.741 14.77C291.741 13.35 291.751 12.33 291.771 11.71C291.791 11.07 291.851 10.43 291.951 9.79C292.071 9.13 292.221 8.66 292.401 8.38C292.581 8.08 292.851 7.81 293.211 7.57C293.571 7.33 293.991 7.18 294.471 7.12C294.951 7.04 295.571 7 296.331 7H296.391V22ZM299.871 17.26C301.211 17.26 302.231 17.26 302.931 17.26C303.631 17.26 303.991 17.27 304.011 17.29C304.031 17.29 304.061 17.3 304.101 17.32C304.161 17.32 304.201 17.33 304.221 17.35C304.241 17.37 304.261 17.4 304.281 17.44C304.301 17.46 304.311 17.5 304.311 17.56C304.351 17.7 304.371 17.81 304.371 17.89V18.79C304.371 20.93 303.281 22 301.101 22H297.321V19.75H298.941C299.361 19.75 299.621 19.69 299.721 19.57C299.821 19.43 299.871 19.19 299.871 18.85V17.26ZM297.321 7H301.101C303.281 7 304.371 8.07 304.371 10.21V12.25C303.031 12.25 302.011 12.25 301.311 12.25C300.611 12.25 300.251 12.25 300.231 12.25C300.211 12.23 300.171 12.22 300.111 12.22C300.071 12.2 300.041 12.18 300.021 12.16C300.001 12.14 299.981 12.12 299.961 12.1C299.941 12.06 299.931 12.02 299.931 11.98C299.891 11.82 299.871 11.7 299.871 11.62V10.15C299.871 9.81 299.821 9.58 299.721 9.46C299.621 9.32 299.361 9.25 298.941 9.25H297.321V7ZM307.39 7.03H309.22C310.1 7.03 310.76 7.25 311.2 7.69C311.66 8.11 311.89 8.66 311.89 9.34V22H308.47C308.15 22 307.89 21.89 307.69 21.67C307.49 21.45 307.39 21.16 307.39 20.8V7.03ZM307.6 0.64C307.82 0.419999 308.46 0.309999 309.52 0.309999C310.58 0.309999 311.22 0.419999 311.44 0.64C311.66 0.839999 311.77 1.44 311.77 2.44C311.77 3.44 311.65 4.05 311.41 4.27C311.19 4.49 310.56 4.6 309.52 4.6C308.48 4.6 307.84 4.49 307.6 4.27C307.38 4.05 307.27 3.44 307.27 2.44C307.27 1.44 307.38 0.839999 307.6 0.64ZM322.62 9.25H321C320.38 9.25 320.03 9.36 319.95 9.58C319.83 9.84 319.77 10.21 319.77 10.69V18.31C319.77 18.35 319.77 18.47 319.77 18.67C319.77 18.87 319.79 19.04 319.83 19.18C319.91 19.56 320.3 19.75 321 19.75H322.62V22H319.71C318.95 22 318.33 21.97 317.85 21.91C317.37 21.83 316.95 21.67 316.59 21.43C316.23 21.19 315.96 20.93 315.78 20.65C315.6 20.35 315.45 19.88 315.33 19.24C315.19 18.34 315.12 17.08 315.12 15.46C315.12 13.84 315.13 12.75 315.15 12.19C315.17 11.61 315.2 11 315.24 10.36C315.3 9.72 315.39 9.25 315.51 8.95C315.65 8.65 315.82 8.35 316.02 8.05C316.24 7.73 316.52 7.51 316.86 7.39C317.6 7.13 318.55 7 319.71 7H322.62V9.25ZM329.37 21.79C329.37 21.93 329.33 22 329.25 22H326.79C325.67 22 324.84 21.74 324.3 21.22C323.78 20.7 323.52 19.85 323.52 18.67V7H324.75C326.01 7 326.87 7.3 327.33 7.9C327.79 8.48 328.02 9.25 328.02 10.21V18.61C328.02 19.23 328.15 19.58 328.41 19.66C328.55 19.72 328.74 19.75 328.98 19.75H329.13C329.29 19.75 329.37 19.82 329.37 19.96V21.79ZM338.126 21.79C338.126 21.93 338.076 22 337.976 22H334.946C333.826 22 332.996 21.74 332.456 21.22C331.936 20.7 331.676 19.85 331.676 18.67V0.339998H333.506C334.386 0.339998 335.046 0.559998 335.486 0.999999C335.946 1.42 336.176 1.97 336.176 2.65V18.61C336.176 19.23 336.306 19.58 336.566 19.66C336.706 19.72 336.896 19.75 337.136 19.75H337.886C338.046 19.75 338.126 19.82 338.126 19.96V21.79Z" fill="black"/>
</svg>
